<svg xmlns="http://www.w3.org/2000/svg" xmlns:xlink="http://www.w3.org/1999/xlink" width="220" zoomAndPan="magnify" viewBox="0 0 165 165.750002" height="221" preserveAspectRatio="xMidYMid meet" version="1.0"><defs><filter x="0%" y="0%" width="100%" height="100%" id="c57ab9f77f"><feColorMatrix values="0 0 0 0 1 0 0 0 0 1 0 0 0 0 1 0 0 0 1 0" color-interpolation-filters="sRGB"/></filter><clipPath id="031b3ddb66"><path d="M 0.125 0 L 164.820312 0 L 164.820312 165 L 0.125 165 Z M 0.125 0 " clip-rule="nonzero"/></clipPath><clipPath id="002699ea15"><path d="M 22.589844 0 L 142.351562 0 C 148.3125 0 154.023438 2.367188 158.238281 6.582031 C 162.453125 10.792969 164.820312 16.507812 164.820312 22.464844 L 164.820312 142.441406 C 164.820312 154.847656 154.761719 164.90625 142.351562 164.90625 L 22.589844 164.90625 C 16.632812 164.90625 10.917969 162.539062 6.703125 158.328125 C 2.492188 154.113281 0.125 148.398438 0.125 142.441406 L 0.125 22.464844 C 0.125 16.507812 2.492188 10.792969 6.703125 6.582031 C 10.917969 2.367188 16.632812 0 22.589844 0 Z M 22.589844 0 " clip-rule="nonzero"/></clipPath><clipPath id="7b34cb5441"><path d="M 0.125 57 L 71 57 L 71 130 L 0.125 130 Z M 0.125 57 " clip-rule="nonzero"/></clipPath><mask id="c832dd2b1a"><g filter="url(#c57ab9f77f)"><rect x="-16.5" width="198" fill="#000000" y="-16.575" height="198.900002" fill-opacity="0.76"/></g></mask><clipPath id="9ece1b9490"><path d="M 0.757812 0.0585938 L 4.832031 0.0585938 L 4.832031 30.25 L 0.757812 30.25 Z M 0.757812 0.0585938 " clip-rule="nonzero"/></clipPath><clipPath id="f24c03c482"><rect x="0" width="5" y="0" height="31"/></clipPath><clipPath id="0be8d825f1"><path d="M 0.125 36 L 71 36 L 71 109 L 0.125 109 Z M 0.125 36 " clip-rule="nonzero"/></clipPath><clipPath id="27e0891fd2"><path d="M 94 36 L 164.875 36 L 164.875 109 L 94 109 Z M 94 36 " clip-rule="nonzero"/></clipPath><mask id="7e1fb592fa"><g filter="url(#c57ab9f77f)"><rect x="-16.5" width="198" fill="#000000" y="-16.575" height="198.900002" fill-opacity="0.76"/></g></mask><clipPath id="4f0a945e31"><path d="M 0.0507812 0.578125 L 4 0.578125 L 4 30.773438 L 0.0507812 30.773438 Z M 0.0507812 0.578125 " clip-rule="nonzero"/></clipPath><clipPath id="9e5acaffbd"><rect x="0" width="5" y="0" height="31"/></clipPath><clipPath id="f7f8cb01e2"><path d="M 94 57 L 164.875 57 L 164.875 130 L 94 130 Z M 94 57 " clip-rule="nonzero"/></clipPath></defs><g clip-path="url(#031b3ddb66)"><g clip-path="url(#002699ea15)"><path fill="#565f63" d="M 0.125 0 L 164.820312 0 L 164.820312 164.695312 L 0.125 164.695312 Z M 0.125 0 " fill-opacity="1" fill-rule="nonzero"/></g></g><path stroke-linecap="round" transform="matrix(0.416346, -0.622465, 0.622465, 0.416346, 61.146441, 109.28242)" fill="none" stroke-linejoin="miter" d="M 2.50071 2.497466 L 87.062488 2.497575 " stroke="#f16529" stroke-width="5" stroke-opacity="1" stroke-miterlimit="4"/><g clip-path="url(#7b34cb5441)"><path stroke-linecap="round" transform="matrix(-0.630828, -0.403563, 0.403563, -0.630828, 45.80666, 106.998147)" fill="none" stroke-linejoin="miter" d="M 3.000167 3.000595 L 54.959356 3.000493 " stroke="#f25c05" stroke-width="6" stroke-opacity="1" stroke-miterlimit="4"/></g><g mask="url(#c832dd2b1a)"><g transform="matrix(1, 0, 0, 1, 31, 68)"><g clip-path="url(#f24c03c482)"><g clip-path="url(#9ece1b9490)"><path stroke-linecap="round" transform="matrix(0, -0.74887, 0.74887, 0, 0.976497, 30.104826)" fill="none" stroke-linejoin="miter" d="M 2.497697 2.498643 L 37.023653 2.498643 " stroke="#f25c05" stroke-width="5" stroke-opacity="1" stroke-miterlimit="4"/></g></g></g></g><g clip-path="url(#0be8d825f1)"><path stroke-linecap="round" transform="matrix(0.632078, -0.401602, 0.401602, 0.632078, 9.154621, 82.015279)" fill="none" stroke-linejoin="miter" d="M 2.997791 2.999107 L 54.846031 3.002338 " stroke="#f16529" stroke-width="6" stroke-opacity="1" stroke-miterlimit="4"/></g><g clip-path="url(#27e0891fd2)"><path stroke-linecap="round" transform="matrix(0.630828, 0.403563, -0.403563, 0.630828, 119.130555, 58.798306)" fill="none" stroke-linejoin="miter" d="M 3.000791 3.000864 L 54.95998 3.000763 " stroke="#f25c05" stroke-width="6" stroke-opacity="1" stroke-miterlimit="4"/></g><g mask="url(#7e1fb592fa)"><g transform="matrix(1, 0, 0, 1, 129, 67)"><g clip-path="url(#9e5acaffbd)"><g clip-path="url(#4f0a945e31)"><path stroke-linecap="round" transform="matrix(0, 0.74887, -0.74887, 0, 3.960424, 0.691625)" fill="none" stroke-linejoin="miter" d="M 2.498263 2.497869 L 37.024219 2.497869 " stroke="#f25c05" stroke-width="5" stroke-opacity="1" stroke-miterlimit="4"/></g></g></g></g><g clip-path="url(#f7f8cb01e2)"><path stroke-linecap="round" transform="matrix(-0.632078, 0.401602, -0.401602, -0.632078, 155.786552, 83.781166)" fill="none" stroke-linejoin="miter" d="M 3.002237 3.001254 L 54.846075 3.001687 " stroke="#f16529" stroke-width="6" stroke-opacity="1" stroke-miterlimit="4"/></g></svg>